<svg id="Layer_1" data-name="Layer 1" xmlns="http://www.w3.org/2000/svg" viewBox="0 0 1074.39 584.23"><defs><style>.cls-1{fill:#f2f2f2;}.cls-2{fill:#2f2e41;}.cls-10,.cls-3{fill:#26bfbf;}.cls-4{fill:none;stroke:#3f3d56;stroke-miterlimit:10;}.cls-5{opacity:0.1;}.cls-10,.cls-5{isolation:isolate;}.cls-6{fill:#3f3d56;}.cls-7{fill:#fbbebe;}.cls-8{fill:#57b894;}.cls-9{fill:#fff;}.cls-10{opacity:0.3;}</style></defs><g id="Group_24" data-name="Group 24"><ellipse id="Ellipse_13" data-name="Ellipse 13" class="cls-1" cx="540.64" cy="549.31" rx="527.5" ry="34.92"/><path id="Path_92" data-name="Path 92" class="cls-2" d="M530,177.87c-85.94,0-147.65,55.14-147.65,183.8,0,145.82,61.71,184.42,147.65,184.42s151.33-42.28,151.33-184.42C681.33,209.73,616,177.87,530,177.87Zm.57,319.81c-59.53,0-90.63-34.92-90.63-135.91,0-89.12,32.37-136.1,91.9-136.1s91.9,30.86,91.9,136.1c0,98.44-33.65,135.91-93.17,135.91Z" transform="translate(-9.57 -10.87)"/><path id="Path_93" data-name="Path 93" class="cls-3" d="M330.89,444.38H295.35V339.74a21,21,0,0,0-21-20.95h-8.33a21,21,0,0,0-21,20.95V444.38H144.88a12,12,0,0,1-10.57-17.55L240.39,226.05a21,21,0,0,0-8.74-28.32l-.84-.42-6.26-3a21,21,0,0,0-27.43,9.07l-129.38,242a28.4,28.4,0,0,0-3.36,13.41h0A28.41,28.41,0,0,0,92.8,487.27H245.11v66.17a25.12,25.12,0,0,0,25.12,25.12h0a25.12,25.12,0,0,0,25.12-25.12h0V487.27h35.54a21.44,21.44,0,0,0,21.44-21.45h0a21.44,21.44,0,0,0-21.44-21.44Z" transform="translate(-9.57 -10.87)"/><path id="Path_94" data-name="Path 94" class="cls-3" d="M988.88,444.38H953.35V339.74a21,21,0,0,0-21-20.95h-8.32a21,21,0,0,0-21,20.95V444.38H802.88a12,12,0,0,1-10.58-17.55L898.38,226.05a21,21,0,0,0-8.73-28.32c-.28-.15-.56-.29-.85-.42l-6.26-3a21,21,0,0,0-27.43,9.07l-129.38,242a28.51,28.51,0,0,0-3.35,13.41h0a28.41,28.41,0,0,0,28.41,28.41H903.11v66.17a25.12,25.12,0,0,0,25.12,25.12h0a25.12,25.12,0,0,0,25.12-25.12h0V487.27h35.53a21.45,21.45,0,0,0,21.45-21.45h0a21.44,21.44,0,0,0-21.45-21.44Z" transform="translate(-9.57 -10.87)"/><path id="Path_95" data-name="Path 95" class="cls-4" d="M340.69,432.13H305.16V327.49a21,21,0,0,0-21-21h-8.33a21,21,0,0,0-21,21V432.13H154.69a12,12,0,0,1-10.58-17.55L250.19,213.8a21,21,0,0,0-8.74-28.32c-.27-.15-.56-.29-.84-.42l-6.26-3a21,21,0,0,0-27.43,9.07L77.54,433.2a28.36,28.36,0,0,0-3.36,13.4h0A28.41,28.41,0,0,0,102.6,475H254.92v66.16A25.12,25.12,0,0,0,280,566.3h0a25.12,25.12,0,0,0,25.11-25.12V475h35.54a21.44,21.44,0,0,0,21.44-21.44h0a21.44,21.44,0,0,0-21.44-21.44Z" transform="translate(-9.57 -10.87)"/><path id="Path_96" data-name="Path 96" class="cls-4" d="M1007.26,432.13H971.73V327.49a21,21,0,0,0-21-21h-8.32a21,21,0,0,0-21,21V432.13H821.26a12,12,0,0,1-10.58-17.55L916.77,213.8A21,21,0,0,0,908,185.48l-.84-.42-6.27-3a21,21,0,0,0-27.43,9.07l-129.38,242a28.35,28.35,0,0,0-3.35,13.4h0A28.41,28.41,0,0,0,769.17,475H921.49v66.16a25.12,25.12,0,0,0,25.12,25.12h0a25.12,25.12,0,0,0,25.12-25.12h0V475h35.53a21.44,21.44,0,0,0,21.45-21.44h0A21.44,21.44,0,0,0,1007.26,432.13Z" transform="translate(-9.57 -10.87)"/><path id="Path_97" data-name="Path 97" class="cls-4" d="M549.61,166.85C463.66,166.85,402,222,402,350.65c0,145.81,61.7,184.41,147.65,184.41s151.32-42.28,151.32-184.42C700.93,198.71,635.55,166.85,549.61,166.85Zm.56,319.8c-59.53,0-90.62-34.92-90.62-135.91,0-89.11,32.37-136.1,91.9-136.1s91.9,30.87,91.9,136.1c0,98.45-33.65,135.91-93.18,135.91Z" transform="translate(-9.57 -10.87)"/><circle id="Ellipse_14" data-name="Ellipse 14" class="cls-2" cx="471.14" cy="18.25" r="12.9"/><ellipse id="Ellipse_15" data-name="Ellipse 15" class="cls-2" cx="502.61" cy="46.88" rx="36.19" ry="46.88"/><path id="Path_98" data-name="Path 98" class="cls-5" d="M512.18,90.47c-18.13,0-33.14-17.27-35.77-39.8a59.9,59.9,0,0,0-.41,7.08c0,25.9,16.2,46.89,36.18,46.89s36.19-21,36.19-46.89a62.11,62.11,0,0,0-.41-7.08C545.32,73.2,530.31,90.47,512.18,90.47Z" transform="translate(-9.57 -10.87)"/><path id="Path_99" data-name="Path 99" class="cls-6" d="M585.82,195.05c-.78,3.2-4.13,5.75-7.84,7.54-7.8,3.76-17.42,4.88-26.76,5.26a44.79,44.79,0,0,1-7.14-.14,20.54,20.54,0,0,1-12.26-5.63,1.68,1.68,0,0,1-.49-2.33,1.65,1.65,0,0,1,.54-.51c5-5.46,13.26-8.81,21.61-11.22,6.34-1.83,17.38-6.56,24.29-5.92C584.47,182.72,586.8,191,585.82,195.05Z" transform="translate(-9.57 -10.87)"/><path id="Path_100" data-name="Path 100" class="cls-5" d="M585.82,195.05c-.78,3.2-4.13,5.75-7.84,7.54-7.8,3.76-17.42,4.88-26.76,5.26a44.79,44.79,0,0,1-7.14-.14,20.54,20.54,0,0,1-12.26-5.63,1.68,1.68,0,0,1-.49-2.33,1.65,1.65,0,0,1,.54-.51c5-5.46,13.26-8.81,21.61-11.22,6.34-1.83,17.38-6.56,24.29-5.92C584.47,182.72,586.8,191,585.82,195.05Z" transform="translate(-9.57 -10.87)"/><path id="Path_101" data-name="Path 101" class="cls-6" d="M486.62,171.19a19.78,19.78,0,0,0-1.2,15.07,26.29,26.29,0,0,0,8.83,12.5c10.1,8.09,24,9.21,36.93,9.09a282.77,282.77,0,0,0,33.9-2.32,40.38,40.38,0,0,0,11-2.55c4.22-1.83,7.93-5.18,9.44-9.53s.43-9.67-3.14-12.57c-3.13-2.55-7.46-2.9-11.5-3.15l-23.09-1.38c2.29-2.31,5.32-3.62,8.1-5.3,3.69-2.22,6.14-6,8.82-9.33a129,129,0,0,1,13.44-13.82c.75,4.31,3.47,7.85,6.68,10.83s6.91,5.36,10.25,8.2c8.08,6.85,13.9,16.16,22.39,22.5a43.85,43.85,0,0,0,16-8l-3.3-6a3.84,3.84,0,0,0-1.24-1.55c-.94-.58-2.14-.28-3.23-.44-2.9-.44-4.17-3.79-5.3-6.49-3.13-7.42-9.11-13.18-14.22-19.4a97.8,97.8,0,0,1-10-14.72c-1.72-3.1-3.29-6.34-5.62-9s-5.59-4.78-9.14-4.79c-3.13,0-6,1.59-8.71,3.19a229.79,229.79,0,0,0-23.63,16.1c-4,3.06-7.86,6.3-12.49,8.17-1.95.79-4,1.33-5.87,2.29-3.27,1.69-5.76,4.54-8.43,7.07C512.8,164.87,499.74,170.72,486.62,171.19Z" transform="translate(-9.57 -10.87)"/><path id="Path_102" data-name="Path 102" class="cls-7" d="M534.9,107a23.89,23.89,0,0,1-1.74,8,10,10,0,0,1-5.77,5.57,12.41,12.41,0,0,1-5.62.18,10.87,10.87,0,0,1-4.58-1.56c-2.17-1.49-3.24-4.14-3.64-6.74s-.22-5.25-.47-7.86a41.42,41.42,0,0,0-1.2-6.26l-.51-2q-.25-1-.48-2c-.14-.64-.27-1.28-.38-1.93s-.17-1.09-.23-1.64a18.71,18.71,0,0,0-.81-4.81A14.73,14.73,0,0,0,507.78,83c-.28-.41-.56-.81-.82-1.24A5.91,5.91,0,0,1,506,78a3.29,3.29,0,0,1,.15-.6,2,2,0,0,1,.08-.22,1.8,1.8,0,0,0,1.23-1.15,3.48,3.48,0,0,0-.14-1.78,12.07,12.07,0,0,0-1-2.29c-.27-.47-1.16-1.34-1.17-1.88,0-1.1,2.14-2,3-2.43a16.83,16.83,0,0,1,8.6-1.74c1.9.13,4,.71,5,2.31.94,1.44.82,3.3,1.22,5a1.51,1.51,0,0,0,.3.67,1.44,1.44,0,0,0,.74.34,4.51,4.51,0,0,0,1.42,0h0a2.52,2.52,0,0,0,.37,0,4.79,4.79,0,0,0,2-.88,11.78,11.78,0,0,1,1.18-.25h0c1.57,5,1.78,10.31,3.07,15.37.64,2.52,1.55,5,1.68,7.6,0,.12,0,.23,0,.35,0,.83,0,1.67,0,2.5A8.2,8.2,0,0,0,534,100a15.32,15.32,0,0,0,.53,1.75v0c.06.19.11.37.16.56s.07.26.09.4h0a14.78,14.78,0,0,1,.1,4.2Z" transform="translate(-9.57 -10.87)"/><circle id="Ellipse_16" data-name="Ellipse 16" class="cls-7" cx="503.24" cy="45" r="18.57"/><path id="Path_103" data-name="Path 103" class="cls-7" d="M630.68,157a30.46,30.46,0,0,0-5.24-14.1c.48,2.87,1,5.73,1.45,8.59a3.2,3.2,0,0,1-3.37-1,10.16,10.16,0,0,1-1.76-3.27,67.55,67.55,0,0,0-8.21-14.74c-11.82-1-23.5-5.88-33.9-11.6s-20.13-12.55-30.39-18.5a43.75,43.75,0,0,0-5.54-2.83c-3.21-1.29-6.81-2-9.86-3.47l-.61-.32a13.14,13.14,0,0,1-1.94-1.3,10.88,10.88,0,0,1-.93-.86,20.46,20.46,0,0,1-3.56-5.95C525.19,84,524.6,79.65,523,76a11.17,11.17,0,0,1,2.5-1.76h0l.4-.2a12.31,12.31,0,0,1,2-.73c.39-.11.79-.19,1.18-.26h.05a11.49,11.49,0,0,1,5.49.44c2.59.87,4.77,2.62,6.94,4.27a112.38,112.38,0,0,1,10.15,8c1.8,1.72,3.43,3.6,5.36,5.17a43,43,0,0,0,5.06,3.35L593.41,113c3.54,2.1,7.07,4.21,10.53,6.43,5.25,3.39,10.31,7.06,15.36,10.73l8.94,6.47a10,10,0,0,1,2.55,2.35,8.52,8.52,0,0,1,1.12,3.43,31.43,31.43,0,0,1-1.23,14.6Z" transform="translate(-9.57 -10.87)"/><path id="Path_104" data-name="Path 104" class="cls-3" d="M539.5,120.92c-1.25,5.62-6.93,9-9.9,14-3.69,6.12-2.19,13.24-.8,20.26l-7.59,6.54c-1.4,1.2-2.8,2.4-4.3,3.46a57.67,57.67,0,0,1-6.86,3.94l-6.73,3.46a32,32,0,0,1-6.58,2.79c-4.41,1.13-9.1.34-13.47-1a6.49,6.49,0,0,1-1.47-.6,2.51,2.51,0,0,1-.7-.64,3.86,3.86,0,0,1-.44-2.54c.44-7.35,2.24-14.54,4-21.69a83.67,83.67,0,0,1,3.85-12.57A83.58,83.58,0,0,1,494,126.16a68.31,68.31,0,0,1,7.93-11.52,18.42,18.42,0,0,0,3.68-4.74c1.11-2.55.68-5.47.91-8.24a17.16,17.16,0,0,1,1.63-6h0a17.5,17.5,0,0,1,1.74-2.88l.92,2.13.6,1.39c.26.6.51,1.2.77,1.79.73,1.7,1.46,3.41,2.2,5.11a21.44,21.44,0,0,0,3.33,5.94,6.5,6.5,0,0,0,11.13-.85,21.53,21.53,0,0,0,2.27-6,19.19,19.19,0,0,0,.25-7.84c-.76-5-2.89-10.12-4.44-14.78a15.1,15.1,0,0,1-1.08-4.87,5.32,5.32,0,0,1,.06-.56l0-.14a11.48,11.48,0,0,1,3.18-1q2,11.07,4.09,22.13c0,.17.07.34.1.52.2,1.06.4,2.11.62,3.17s.41,1.91.65,2.85v0c.08.32.16.64.25,1h0c.24.87.52,1.73.82,2.58C537.46,110.46,540.69,115.61,539.5,120.92Z" transform="translate(-9.57 -10.87)"/><path id="Path_105" data-name="Path 105" class="cls-6" d="M614.84,199.86a6.54,6.54,0,0,0,.61,3.14c1.16,2.12,3.95,2.61,6.36,2.8a188,188,0,0,0,42.27-1.29,4.8,4.8,0,0,0,2.15-.67c2-1.4.76-4.8-1.41-5.88s-4.75-.83-7.13-1.3a22.58,22.58,0,0,1-6.68-2.9q-7.26-4.17-14.29-8.69c-2.8-1.79-6.1-3.71-9.24-2.64C619,185.32,614.79,190.66,614.84,199.86Z" transform="translate(-9.57 -10.87)"/><path id="Path_106" data-name="Path 106" class="cls-7" d="M511,93.85h0c0,.14,0,.27-.07.39l-.12.65c-.39,2-.87,4-1.42,6-1.51,5.46-3.53,10.83-5.54,16.13q-8.08,21.28-16.16,42.57c-1.36,3.58-2.72,7.15-4.26,10.66l-1.58,3.53c-1.89,4.26-3.71,8.65-4.32,13.18a27.44,27.44,0,0,0-.19,9c.6,3,2.41,5.88,5.23,7,1.38.54,3.35,1.26,3,2.69-.2.79-1.1,1.17-1.9,1.3a7.27,7.27,0,0,1-6-1.71c-1.51-1.34-2.67-3.42-4.67-3.64-1.39-.16-2.67.68-3.94,1.26-5.18,2.37-11.22.71-16.67-1,.43-2.21,2.64-3.66,4.84-4.1s4.48-.13,6.72-.19a3.57,3.57,0,0,0,2-.53,3.68,3.68,0,0,0,1.1-1.88A78.11,78.11,0,0,0,470.27,182c.73-4.66,1-9.4,2.06-14,.8-3.6,2-7.08,3.11-10.61q3.07-10.9,5.06-22.08a77.89,77.89,0,0,0,1.42-9.37c.18-2.61.1-5.23.35-7.84a61.12,61.12,0,0,1,2.11-10q1.44-5.34,2.89-10.68c1.42-5.28,3-10.75,6.56-14.85a14,14,0,0,1,10-4.79A10.14,10.14,0,0,1,506,78l.35.09a8.58,8.58,0,0,1,2.17.9c1.12-.71,1.68-.46,2.42.63a7,7,0,0,1,.89,3.8A52.74,52.74,0,0,1,511,93.85Z" transform="translate(-9.57 -10.87)"/><path id="Path_107" data-name="Path 107" class="cls-3" d="M512.18,98l0,0-.26.26-2.53,2.53-1.24-5.21-4.25-17.86A10.14,10.14,0,0,1,506,78a3.29,3.29,0,0,1,.15-.6l.2.69,1.44,4.9,2.73,9.31.45,1.53h0Z" transform="translate(-9.57 -10.87)"/><path id="Path_108" data-name="Path 108" class="cls-2" d="M528.24,41.07a12.64,12.64,0,0,1-3.7,8.9,13.75,13.75,0,0,1-1.36,1.17,12.54,12.54,0,0,1-7.54,2.53h-15.1a12.59,12.59,0,0,1,0-25.18h15.1a12.62,12.62,0,0,1,12.6,12.58Z" transform="translate(-9.57 -10.87)"/><circle id="Ellipse_17" data-name="Ellipse 17" class="cls-2" cx="532.82" cy="18.25" r="12.9"/><path id="Path_109" data-name="Path 109" class="cls-5" d="M542.08,16.21l-.48,0a12.9,12.9,0,0,1,0,25.77l.48,0a12.9,12.9,0,0,0,0-25.8Z" transform="translate(-9.57 -10.87)"/><path id="Path_110" data-name="Path 110" class="cls-5" d="M480.72,16.21l.47,0a12.9,12.9,0,0,0,0,25.77l-.47,0a12.9,12.9,0,0,1,0-25.8Z" transform="translate(-9.57 -10.87)"/><path id="Path_111" data-name="Path 111" class="cls-5" d="M523.18,51.14a12.53,12.53,0,0,1-7.54,2.52h-15.1A12.53,12.53,0,0,1,493,51.14Z" transform="translate(-9.57 -10.87)"/><path id="Path_112" data-name="Path 112" class="cls-7" d="M620.66,144.62s3.25,9.37,6.23,6.88l-2.37-12.25Z" transform="translate(-9.57 -10.87)"/><path id="Path_113" data-name="Path 113" class="cls-8" d="M1016.44,430.41a20.81,20.81,0,1,0,2.77-39.91l.52,10.71-5.07-9.18A20.75,20.75,0,0,0,1004,403.75a20.51,20.51,0,0,0-1.2,5.63A20.8,20.8,0,0,0,1016.44,430.41Z" transform="translate(-9.57 -10.87)"/><path id="Path_114" data-name="Path 114" class="cls-4" d="M1041.52,554.66c-1.79-9.11,6-17.19,13.62-22.44s16.6-10.41,19.22-19.32c3.76-12.8-7.43-24.53-16.14-34.64a125.64,125.64,0,0,1-16.52-24.56c-1.81-3.53-3.48-7.22-4-11.16-.69-5.68,1.14-11.32,3-16.74q9.18-27,19.63-53.65" transform="translate(-9.57 -10.87)"/><path id="Path_115" data-name="Path 115" class="cls-4" d="M1017.3,427.66a20.81,20.81,0,1,0,2.77-39.92l.52,10.71-5.07-9.18A20.74,20.74,0,0,0,1004.84,401a20.07,20.07,0,0,0-1.2,5.63A20.82,20.82,0,0,0,1017.3,427.66Z" transform="translate(-9.57 -10.87)"/><path id="Path_116" data-name="Path 116" class="cls-8" d="M1039,368.45a20.81,20.81,0,0,1,15-13.2l1.72,10.19,3.17-10.7A20.79,20.79,0,1,1,1039,368.45Z" transform="translate(-9.57 -10.87)"/><path id="Path_117" data-name="Path 117" class="cls-4" d="M1040.12,364.78a20.77,20.77,0,0,1,15-13.2l1.71,10.18,3.18-10.7a20.83,20.83,0,1,1-19.87,13.71Z" transform="translate(-9.57 -10.87)"/><path id="Path_118" data-name="Path 118" class="cls-8" d="M1054.57,478.47a20.81,20.81,0,0,0,18.42-37l-2.45,8.22-1.73-10.3,0,0a20.81,20.81,0,1,0-14.19,39.12Z" transform="translate(-9.57 -10.87)"/><path id="Path_119" data-name="Path 119" class="cls-4" d="M1055.56,474.74a20.81,20.81,0,0,0,18.42-37l-2.45,8.22-1.73-10.3,0,0a20.81,20.81,0,1,0-14.19,39.13Z" transform="translate(-9.57 -10.87)"/><path id="Path_120" data-name="Path 120" class="cls-8" d="M1032.9,513a20.8,20.8,0,1,0,4-16.3l9.27,14-12.67-7.41a20.64,20.64,0,0,0-.61,9.75Z" transform="translate(-9.57 -10.87)"/><path id="Path_121" data-name="Path 121" class="cls-4" d="M1033.76,510.27a20.78,20.78,0,1,0,4-16.3l9.27,14-12.67-7.41a20.65,20.65,0,0,0-.61,9.75Z" transform="translate(-9.57 -10.87)"/><path id="Path_122" data-name="Path 122" class="cls-8" d="M18.58,481.11a13.67,13.67,0,1,0,1.82-26.22l.35,7-3.33-6a13.62,13.62,0,0,0-7,7.7,13.44,13.44,0,0,0-.79,3.7,13.67,13.67,0,0,0,9,13.82Z" transform="translate(-9.57 -10.87)"/><path id="Path_123" data-name="Path 123" class="cls-4" d="M35.06,562.74C33.88,556.76,39,551.45,44,548s10.91-6.84,12.62-12.69c2.47-8.41-4.88-16.12-10.6-22.76a82.49,82.49,0,0,1-10.85-16.14,22.23,22.23,0,0,1-2.6-7.33c-.45-3.73.75-7.44,2-11q6-17.77,12.9-35.25" transform="translate(-9.57 -10.87)"/><path id="Path_124" data-name="Path 124" class="cls-4" d="M19.15,479.3A13.67,13.67,0,1,0,21,453.08l.34,7-3.33-6a13.6,13.6,0,0,0-7,7.7,13.36,13.36,0,0,0-.79,3.7,13.66,13.66,0,0,0,9,13.81Z" transform="translate(-9.57 -10.87)"/><path id="Path_125" data-name="Path 125" class="cls-8" d="M33.39,440.4a13.63,13.63,0,0,1,9.84-8.67l1.13,6.69,2.08-7a13.67,13.67,0,1,1-13,9Z" transform="translate(-9.57 -10.87)"/><path id="Path_126" data-name="Path 126" class="cls-4" d="M34.14,438A13.66,13.66,0,0,1,44,429.32L45.11,436l2.08-7a13.68,13.68,0,1,1-13,9Z" transform="translate(-9.57 -10.87)"/><path id="Path_127" data-name="Path 127" class="cls-8" d="M43.63,512.69a13.67,13.67,0,0,0,12.1-24.33l-1.6,5.4L53,487h0a13.67,13.67,0,1,0-9.32,25.7Z" transform="translate(-9.57 -10.87)"/><path id="Path_128" data-name="Path 128" class="cls-4" d="M44.28,510.24a13.67,13.67,0,0,0,12.1-24.33l-1.6,5.4-1.13-6.77h0a13.67,13.67,0,1,0-9.32,25.71h0Z" transform="translate(-9.57 -10.87)"/><path id="Path_129" data-name="Path 129" class="cls-8" d="M29.4,535.39A13.66,13.66,0,1,0,32,524.69l6.09,9.17L29.8,529a13.6,13.6,0,0,0-.4,6.4Z" transform="translate(-9.57 -10.87)"/><path id="Path_130" data-name="Path 130" class="cls-4" d="M30,533.58a13.68,13.68,0,1,0,2.64-10.71L38.69,532l-8.33-4.86a13.61,13.61,0,0,0-.4,6.4Z" transform="translate(-9.57 -10.87)"/><ellipse id="Ellipse_18" data-name="Ellipse 18" class="cls-2" cx="480.95" cy="319.12" rx="17" ry="22"/><ellipse id="Ellipse_19" data-name="Ellipse 19" class="cls-2" cx="573.45" cy="319.62" rx="17" ry="22"/><path id="Path_131" data-name="Path 131" class="cls-2" d="M570,395.48c0,9.94-13.88,18-31,18s-31-8.06-31-18c0-8.61,10.41-15.81,24.32-17.57a49.84,49.84,0,0,1,6.68-.43,50.79,50.79,0,0,1,11.13,1.2C561.77,381.27,570,387.82,570,395.48Z" transform="translate(-9.57 -10.87)"/><ellipse id="Ellipse_20" data-name="Ellipse 20" class="cls-4" cx="484.95" cy="314.12" rx="17" ry="22"/><ellipse id="Ellipse_21" data-name="Ellipse 21" class="cls-4" cx="577.45" cy="314.62" rx="17" ry="22"/><ellipse id="Ellipse_22" data-name="Ellipse 22" class="cls-4" cx="533.45" cy="379.62" rx="31" ry="18"/><path id="Path_132" data-name="Path 132" class="cls-9" d="M550.52,380.18a4.9,4.9,0,0,1-1.32,3.39A4.37,4.37,0,0,1,546,385H536a4.66,4.66,0,0,1-4.5-4.8,5,5,0,0,1,.82-2.74A46.67,46.67,0,0,1,539,377a47.94,47.94,0,0,1,11.13,1.28A5,5,0,0,1,550.52,380.18Z" transform="translate(-9.57 -10.87)"/><circle id="Ellipse_23" data-name="Ellipse 23" class="cls-9" cx="484.95" cy="308.12" r="5"/><circle id="Ellipse_24" data-name="Ellipse 24" class="cls-9" cx="577.95" cy="308.12" r="5"/><circle id="Ellipse_25" data-name="Ellipse 25" class="cls-10" cx="582.95" cy="355.12" r="5"/><circle id="Ellipse_26" data-name="Ellipse 26" class="cls-10" cx="460.95" cy="355.12" r="5"/></g></svg>