<svg id="Layer_1" data-name="Layer 1" xmlns="http://www.w3.org/2000/svg" viewBox="0 0 429.48 268.71"><defs><style>.cls-1{fill:#f2f2f2;}.cls-2{fill:#3f3d56;}.cls-3{fill:#26bfbf;}.cls-4{fill:#2f2e41;}.cls-5{fill:#575a89;}.cls-6{opacity:0.1;isolation:isolate;}.cls-7{fill:#fbbebe;}.cls-8{fill:#f1f1f1;}</style></defs><g id="Group_13" data-name="Group 13"><path id="Path_59" data-name="Path 59" class="cls-1" d="M437.35,114.76C421.59,52.8,367.14,8.06,303.22,6.27,269.43,5.32,233.88,16.53,208,55.74c-46.28,70.11,2.84,118.55,37.09,141.57a214.23,214.23,0,0,1,44.29,39.81C312.5,264.57,357,298.68,410,245.24,448.42,206.5,447.85,156,437.35,114.76Z" transform="translate(-14 -6.21)"/><path id="Path_60" data-name="Path 60" class="cls-2" d="M73.15,161.75c-.43-.63-.84-1.28-1.24-1.92l.64-.4c.39.63.81,1.27,1.22,1.89Z" transform="translate(-14 -6.21)"/><path id="Path_61" data-name="Path 61" class="cls-2" d="M69.62,155.77c-.7-1.38-1.35-2.8-1.94-4.23l.7-.29c.58,1.41,1.23,2.82,1.92,4.18Zm-3.52-8.61c-.46-1.48-.87-3-1.21-4.5l.73-.16c.34,1.48.74,3,1.2,4.43Zm-2-9.08c-.22-1.52-.37-3.08-.46-4.63l.76,0c.09,1.52.24,3.06.45,4.57Zm.22-9.26-.76,0c0-1.55.14-3.11.3-4.64l.75.07c-.15,1.52-.25,3.06-.29,4.59Zm1-9.13-.74-.14c.29-1.52.64-3,1.06-4.53l.73.2C65.87,116.69,65.52,118.19,65.23,119.69Zm2.46-8.84-.71-.26c.53-1.45,1.13-2.9,1.79-4.3l.68.32c-.64,1.38-1.24,2.81-1.76,4.24Zm103.69-2.34c-.59-1.4-1.25-2.8-2-4.15l.67-.35c.72,1.37,1.39,2.78,2,4.21Zm-99.81-6-.66-.37c.77-1.34,1.6-2.67,2.48-4l.62.43C73.15,99.9,72.33,101.21,71.57,102.53Zm95.56-2.15c-.81-1.29-1.69-2.56-2.61-3.77l.6-.46c.94,1.23,1.83,2.52,2.65,3.83ZM76.76,95l-.58-.48c1-1.2,2-2.37,3.08-3.49l.55.53q-1.59,1.65-3,3.44Zm84.84-1.91c-1-1.14-2.09-2.25-3.19-3.3l.52-.55c1.12,1.07,2.21,2.19,3.24,3.34ZM83.13,88.35l-.51-.57c1.16-1,2.38-2,3.62-2.93l.45.6C85.47,86.37,84.27,87.34,83.13,88.35ZM155,86.73c-1.18-1-2.43-1.87-3.69-2.73l.43-.63c1.28.87,2.53,1.8,3.74,2.77ZM90.48,82.86l-.4-.64c1.31-.82,2.67-1.6,4-2.3l.35.67c-1.36.7-2.7,1.46-4,2.27Zm56.88-1.28c-1.33-.75-2.71-1.46-4.09-2.09l.32-.69c1.4.64,2.8,1.36,4.14,2.12ZM98.63,78.66l-.29-.7c1.43-.6,2.9-1.14,4.37-1.61l.23.72c-1.46.47-2.9,1-4.31,1.59ZM139,77.74c-1.43-.52-2.91-1-4.38-1.38l.2-.74c1.49.41,3,.88,4.44,1.41Zm-31.66-1.89-.17-.74c1.51-.34,3-.63,4.57-.86l.11.75c-1.51.22-3,.51-4.51.85Zm22.8-.51c-1.49-.28-3-.49-4.54-.65l.07-.75c1.54.15,3.09.37,4.61.65Zm-13.72-.82,0-.75c1.54-.1,3.11-.13,4.66-.11l0,.76c-1.52,0-3.07,0-4.59.11Z" transform="translate(-14 -6.21)"/><path id="Path_62" data-name="Path 62" class="cls-2" d="M173.66,115c-.2-.72-.42-1.45-.65-2.16l.72-.23c.23.72.46,1.45.66,2.18Z" transform="translate(-14 -6.21)"/><path id="Path_63" data-name="Path 63" class="cls-2" d="M169.05,72.63h-.76c0-.76,0-1.53,0-2.29l.76,0C169.06,71.12,169.05,71.88,169.05,72.63Z" transform="translate(-14 -6.21)"/><path id="Path_64" data-name="Path 64" class="cls-2" d="M169.41,65.82l-.76-.09c.17-1.52.39-3.06.66-4.56l.74.13C169.78,62.79,169.57,64.31,169.41,65.82Zm1.61-9-.73-.18c.37-1.49.81-3,1.3-4.43l.72.24c-.48,1.43-.92,2.9-1.29,4.37Zm120.75-8c-.57-1.4-1.19-2.8-1.85-4.16l.68-.33c.67,1.37,1.3,2.79,1.88,4.21Zm-117.86-.66-.7-.29c.59-1.41,1.23-2.83,1.92-4.2l.68.34c-.68,1.35-1.32,2.75-1.9,4.15Zm113.85-7.52c-.76-1.31-1.57-2.61-2.43-3.86l.63-.43c.86,1.27,1.69,2.58,2.46,3.9ZM178,40l-.65-.39c.78-1.31,1.63-2.62,2.51-3.87l.62.43c-.87,1.24-1.71,2.53-2.48,3.83Zm104.62-6.91c-.94-1.19-1.94-2.36-3-3.47l.56-.51c1,1.13,2,2.31,3,3.51Zm-99.4-.57-.59-.47c1-1.19,2-2.37,3-3.48l.55.51c-1,1.11-2,2.27-3,3.44Zm93.24-6.16c-1.1-1-2.25-2-3.42-3l.48-.59c1.18,1,2.35,2,3.46,3.05Zm-87-.49-.52-.56c1.12-1,2.3-2.05,3.5-3l.47.59c-1.18.95-2.35,1.95-3.46,3Zm80-5.29c-1.24-.88-2.52-1.72-3.81-2.5l.39-.65c1.31.8,2.61,1.65,3.86,2.53Zm-72.84-.42-.43-.62c1.26-.87,2.57-1.71,3.89-2.48l.38.65c-1.3.77-2.59,1.59-3.84,2.45Zm65-4.3c-1.35-.69-2.74-1.34-4.14-1.93l.3-.7c1.41.6,2.82,1.26,4.18,2Zm-57.19-.32-.34-.68c1.38-.68,2.79-1.32,4.21-1.9l.28.7c-1.4.57-2.79,1.2-4.15,1.88Zm48.79-3.23c-1.43-.49-2.9-.93-4.37-1.32l.19-.73c1.49.39,3,.84,4.42,1.33Zm-40.36-.23-.24-.72c1.46-.47,2.95-.91,4.44-1.28l.18.74c-1.47.37-2.94.79-4.38,1.26ZM244.4,10c-1.49-.28-3-.5-4.51-.67l.08-.75c1.52.17,3.06.4,4.57.68Zm-22.69-.13-.13-.74c1.5-.26,3-.48,4.57-.63l.07.75c-1.5.16-3,.36-4.52.62ZM235.34,9c-1.52-.06-3.06-.07-4.56,0l0-.76c1.52-.05,3.08,0,4.62,0Z" transform="translate(-14 -6.21)"/><path id="Path_65" data-name="Path 65" class="cls-2" d="M294,55.35c-.21-.72-.42-1.45-.65-2.16l.72-.23c.23.72.45,1.46.65,2.19Z" transform="translate(-14 -6.21)"/><ellipse id="Ellipse_5" data-name="Ellipse 5" class="cls-3" cx="58.71" cy="163.98" rx="12.61" ry="0.95"/><ellipse id="Ellipse_6" data-name="Ellipse 6" class="cls-3" cx="159.28" cy="118.27" rx="12.61" ry="0.95"/><ellipse id="Ellipse_7" data-name="Ellipse 7" class="cls-3" cx="283.51" cy="70.66" rx="12.61" ry="0.95"/><rect id="Rectangle_43" data-name="Rectangle 43" class="cls-2" x="247" y="92.62" width="53.63" height="0.76" transform="translate(0.44 214.64) rotate(-45)"/><rect id="Rectangle_44" data-name="Rectangle 44" class="cls-2" x="165.9" y="110.32" width="63.69" height="0.76"/><rect id="Rectangle_45" data-name="Rectangle 45" class="cls-2" x="125.55" y="139.4" width="50.38" height="0.76" transform="translate(-68.68 141.31) rotate(-45)"/><rect id="Rectangle_46" data-name="Rectangle 46" class="cls-2" x="65.33" y="156.04" width="42.56" height="0.76"/><rect id="Rectangle_47" data-name="Rectangle 47" class="cls-2" x="16.97" y="188.08" width="59.82" height="0.76" transform="translate(-133.53 82.13) rotate(-45)"/><path id="Path_66" data-name="Path 66" class="cls-2" d="M72.7,169.63a7,7,0,1,1,7-7,7,7,0,0,1-7,7Zm0-13.24A6.24,6.24,0,1,0,79,162.63a6.24,6.24,0,0,0-6.25-6.24Z" transform="translate(-14 -6.21)"/><path id="Path_67" data-name="Path 67" class="cls-2" d="M128.51,169.63a7,7,0,1,1,7-7,7,7,0,0,1-7,7Zm0-13.24a6.24,6.24,0,1,0,6.24,6.24,6.24,6.24,0,0,0-6.24-6.24Z" transform="translate(-14 -6.21)"/><path id="Path_68" data-name="Path 68" class="cls-2" d="M173.28,123.91a7,7,0,1,1,7-7h0A7,7,0,0,1,173.28,123.91Zm0-13.24a6.25,6.25,0,1,0,6.24,6.24h0a6.24,6.24,0,0,0-6.24-6.24Z" transform="translate(-14 -6.21)"/><path id="Path_69" data-name="Path 69" class="cls-2" d="M250.21,123.91a7,7,0,1,1,7-7,7,7,0,0,1-7,7Zm0-13.24a6.25,6.25,0,1,0,6.24,6.24,6.24,6.24,0,0,0-6.24-6.24Z" transform="translate(-14 -6.21)"/><path id="Path_70" data-name="Path 70" class="cls-2" d="M297.5,76.31a7,7,0,1,1,7-7,7,7,0,0,1-7,7Zm0-13.25a6.25,6.25,0,1,0,6.25,6.25,6.25,6.25,0,0,0-6.25-6.25Z" transform="translate(-14 -6.21)"/><path id="Path_71" data-name="Path 71" class="cls-2" d="M21,221.34a7,7,0,1,1,7-7,7,7,0,0,1-7,7Zm0-13.25a6.25,6.25,0,1,0,6.24,6.25A6.24,6.24,0,0,0,21,208.09Z" transform="translate(-14 -6.21)"/><path id="Path_72" data-name="Path 72" class="cls-3" d="M72.7,121.33a12.61,12.61,0,0,0-12.61,12.61h0c0,7,12.61,29.95,12.61,29.95s12.62-23,12.62-29.95A12.61,12.61,0,0,0,72.7,121.33Zm0,19.23a6.62,6.62,0,1,1,6.63-6.62,6.62,6.62,0,0,1-6.63,6.62Z" transform="translate(-14 -6.21)"/><path id="Path_73" data-name="Path 73" class="cls-3" d="M173.28,74a12.62,12.62,0,0,0-12.61,12.62h0c0,7,12.61,29.95,12.61,29.95s12.61-23,12.61-29.95A12.6,12.6,0,0,0,173.28,74h0Zm0,19.24a6.63,6.63,0,1,1,6.62-6.63h0a6.62,6.62,0,0,1-6.62,6.62Z" transform="translate(-14 -6.21)"/><rect id="Rectangle_48" data-name="Rectangle 48" class="cls-4" x="235.17" y="267.79" width="171.7" height="0.92"/><path id="Path_74" data-name="Path 74" class="cls-4" d="M390.85,33.64c-2.67,7.9-6.76,15.1-15.11,15.1s-14.63-6.78-15.1-15.1c-.6-10.65,6.57-15.15,15.1-15.11C385.83,18.58,394,24.26,390.85,33.64Z" transform="translate(-14 -6.21)"/><rect id="Rectangle_49" data-name="Rectangle 49" class="cls-4" x="346.64" y="26.23" width="29.81" height="37.76"/><path id="Path_75" data-name="Path 75" class="cls-5" d="M391.33,60.58h2.53a22.57,22.57,0,0,1,3.39,18.59c-2.82,10.71-.57,12.68-.57,12.68s3.67,11.59-.27,29.06,3.65,22.21,3.65,22.21L393,129l-3.95-37.19Z" transform="translate(-14 -6.21)"/><path id="Path_76" data-name="Path 76" class="cls-6" d="M391.33,61.5h2.53a22.6,22.6,0,0,1,3.39,18.6c-2.82,10.7-.57,12.67-.57,12.67s3.67,11.6-.27,29.07,3.65,22.21,3.65,22.21L393,130l-3.94-37.19Z" transform="translate(-14 -6.21)"/><path id="Path_77" data-name="Path 77" class="cls-7" d="M382.45,46.91s-2.25,9-1.12,9,5.07,4.79,5.07,4.79L388.94,70l-2,6.76-6.76-1.4-8.45-9.3-2.54-2.54L367,55.36s2.82-3.38.84-6.19S382.45,46.91,382.45,46.91Z" transform="translate(-14 -6.21)"/><path id="Path_78" data-name="Path 78" class="cls-6" d="M382.45,46.91s-2.25,9-1.12,9,5.07,4.79,5.07,4.79L388.94,70l-2,6.76-6.76-1.4-8.45-9.3-2.54-2.54L367,55.36s2.82-3.38.84-6.19S382.45,46.91,382.45,46.91Z" transform="translate(-14 -6.21)"/><path id="Path_79" data-name="Path 79" class="cls-7" d="M314.27,72l-6.19-10.15S301.39,47,296.6,52.39s7.25,16.21,7.25,16.21l6.2,8.17Z" transform="translate(-14 -6.21)"/><path id="Path_80" data-name="Path 80" class="cls-7" d="M396.54,160.17l-4.51,33s.57,2.54-5.07,11.83-20.85,29.58-20.85,29.58l-4.5-8.45s5.35-26.76,14.65-32.4l-1.13-40.57Z" transform="translate(-14 -6.21)"/><path id="Path_81" data-name="Path 81" class="cls-6" d="M396.54,160.17l-4.51,33s.57,2.54-5.07,11.83-20.85,29.58-20.85,29.58l-4.5-8.45s5.35-26.76,14.65-32.4l-1.13-40.57Z" transform="translate(-14 -6.21)"/><path id="Path_82" data-name="Path 82" class="cls-4" d="M361.61,222.71l6.19,11.83s-5.07,14.37-3.1,15.78,4.51,14.09-.84,12.68-9.58-7-9.58-7.89,3.1-12.68,1.41-15.49a13.72,13.72,0,0,0-2.82-3.67l-4.22,7-1.41-.84,7-11.83s.84-2.26,4.22-3.67Z" transform="translate(-14 -6.21)"/><path id="Path_83" data-name="Path 83" class="cls-6" d="M361.61,222.71l6.19,11.83s-5.07,14.37-3.1,15.78,4.51,14.09-.84,12.68-9.58-7-9.58-7.89,3.1-12.68,1.41-15.49a13.72,13.72,0,0,0-2.82-3.67l-4.22,7-1.41-.84,7-11.83s.84-2.26,4.22-3.67Z" transform="translate(-14 -6.21)"/><path id="Path_84" data-name="Path 84" class="cls-7" d="M375.19,155.49s2.19,31.16-2.6,39.33v40.57l-6.48.85s-13.08-21.48-8.29-42.61-4.95-40.51-4.95-40.51Z" transform="translate(-14 -6.21)"/><circle id="Ellipse_8" data-name="Ellipse 8" class="cls-7" cx="359.58" cy="35.77" r="11.83"/><path id="Path_85" data-name="Path 85" class="cls-5" d="M385.55,73.11,373.72,58.18,367,53.67l-2.82,3.67-7.89,2.25s-5.07,1.13-10.42,7.32-14.93,9.86-14.93,9.86L323,75.37s-9.3-4.23-9.3-5.36-8.17,7.61-6.2,11,6.2,7.61,8.45,9.86,3.1,8.74,16.91,6.76,18.87-8.73,18.87-8.73,2.54,13,9.86,15.5,31.27,4.22,31.27,4.22L398,91.71s5.63-7.33-2-18a70.85,70.85,0,0,0-1-10,6.61,6.61,0,0,0-1.29-3.26c-2-1.7-12.39-4.51-12.39-4.51s1.69,5.63,2.53,5.91S386.68,71.7,385.55,73.11Z" transform="translate(-14 -6.21)"/><path id="Path_86" data-name="Path 86" class="cls-4" d="M347.66,157.21c14.19-1,22.45,1.34,26.13,3.11a9,9,0,0,1,1.92,1.17c.27.22.4.4.4.51,0,.84,19.44,2.53,26.49.84s-4.79-38-7.89-41.13-1.43-14.44-1.43-14.44-6.18-1.34-7.87-.77S375,105.65,371.89,104s-7-.56-9.58-1.13a1.61,1.61,0,0,0-2,.72,4.83,4.83,0,0,1-1.93,2c-6,3.44-10.78,27.27-14.39,40.44C340.05,160.31,347.66,157.21,347.66,157.21Z" transform="translate(-14 -6.21)"/><path id="Path_87" data-name="Path 87" class="cls-4" d="M373.72,232.85l1.13,6.2s5.91,8.45,4.22,15.5c0,0,1.41,9.29,6.48,11.83s.85,8.45-3.94,8.17-9.3.28-9.86-1.13-3.95-15.21-3.95-15.21l-.92,16.15-2.82.29L365,256s-2.26-4.23.84-11.27l-.78-10.81S372.87,235.67,373.72,232.85Z" transform="translate(-14 -6.21)"/><path id="Path_88" data-name="Path 88" class="cls-6" d="M373.79,160.32a9,9,0,0,1,1.92,1.17c.15-2.67,1-18.77,0-18.51Z" transform="translate(-14 -6.21)"/><path id="Path_89" data-name="Path 89" class="cls-4" d="M368.68,25.69s-.13-.73-5.26,1.19-8.19,16.1-5.63,24.43a7.64,7.64,0,0,1-1.18,7.47A12.35,12.35,0,0,0,361,78l.64.27,3.21,1.92a14.61,14.61,0,0,1-2-12.24,35.27,35.27,0,0,0,.63-18c-.23-1-.5-2-.8-3.11-2.56-9-1.32-7.93,7.65-16.9a57.71,57.71,0,0,0,9.61,5.77c4.49,1.92,8.33,3.84,5.13,10.25S374.13,58,379.25,66.37s5.77,5.12,5.13,8.33h0l-.64,3.2,3.84-3.85L385,79.18s8.33,0,10.89-6.41l1.28,1.28s5.12-9-4.49-17.29c0,0-3.2-1.93,1.29-8.33s1-20.18-4.73-22.75S368.68,25.69,368.68,25.69Z" transform="translate(-14 -6.21)"/><circle id="Ellipse_9" data-name="Ellipse 9" class="cls-4" cx="361.75" cy="9.54" r="5.96"/><path id="Path_90" data-name="Path 90" class="cls-4" d="M368.59,12.57A6,6,0,0,1,374,6.64l-.6,0a6,6,0,0,0,0,11.92q.3,0,.6,0a6,6,0,0,1-5.37-5.93Z" transform="translate(-14 -6.21)"/><path id="Path_91" data-name="Path 91" class="cls-3" d="M297.5,28.63a12.62,12.62,0,0,0-12.61,12.61h0c0,7,12.61,30,12.61,30s12.62-23,12.62-30A12.62,12.62,0,0,0,297.5,28.63Zm0,19.24a6.63,6.63,0,1,1,6.62-6.63,6.63,6.63,0,0,1-6.62,6.63Z" transform="translate(-14 -6.21)"/><circle id="Ellipse_10" data-name="Ellipse 10" class="cls-8" cx="181.84" cy="250.25" r="6.82"/><circle id="Ellipse_11" data-name="Ellipse 11" class="cls-8" cx="224.3" cy="221.39" r="6.82"/><circle id="Ellipse_12" data-name="Ellipse 12" class="cls-8" cx="171.79" cy="194.51" r="6.82"/></g></svg>