<svg id="Layer_1" data-name="Layer 1" xmlns="http://www.w3.org/2000/svg" viewBox="0 0 400.44 256.93"><defs><style>.cls-1{fill:#e6e6e6;}.cls-2{fill:#fff;}.cls-3{fill:#f25252;}.cls-4{fill:#ccc;}.cls-5{fill:#ffb9b9;}.cls-6{fill:#2f2e41;}.cls-7{fill:#3f3d56;}</style></defs><rect id="Rectangle_19" data-name="Rectangle 19" class="cls-1" x="124.67" y="0.16" width="275.78" height="176.62"/><rect id="Rectangle_20" data-name="Rectangle 20" class="cls-2" x="132.55" y="22.31" width="260.01" height="144.02"/><rect id="Rectangle_21" data-name="Rectangle 21" class="cls-3" x="124.55" width="275.78" height="11.72"/><circle id="Ellipse_1" data-name="Ellipse 1" class="cls-2" cx="133.25" cy="5.99" r="2.17"/><circle id="Ellipse_2" data-name="Ellipse 2" class="cls-2" cx="141.5" cy="5.99" r="2.17"/><circle id="Ellipse_3" data-name="Ellipse 3" class="cls-2" cx="149.74" cy="5.99" r="2.17"/><path id="Path_10" data-name="Path 10" class="cls-4" d="M345.38,47.06H260.73a.73.73,0,0,1-.65-.84.76.76,0,0,1,.65-.65h84.65a.75.75,0,0,1,0,1.49Z" transform="translate(-26.39 -11.27)"/><path id="Path_11" data-name="Path 11" class="cls-4" d="M286.72,55.26H232.9a.75.75,0,0,1-.65-.84.74.74,0,0,1,.65-.65h53.82a.75.75,0,0,1,.65.84A.74.74,0,0,1,286.72,55.26Z" transform="translate(-26.39 -11.27)"/><path id="Path_12" data-name="Path 12" class="cls-4" d="M345.38,55.41H291.55a.75.75,0,0,1-.65-.84.74.74,0,0,1,.65-.65h53.82a.75.75,0,0,1,0,1.49Z" transform="translate(-26.39 -11.27)"/><path id="Path_13" data-name="Path 13" class="cls-4" d="M286.85,63.45H233A.75.75,0,0,1,233,62h53.82a.75.75,0,0,1,0,1.49Z" transform="translate(-26.39 -11.27)"/><path id="Path_14" data-name="Path 14" class="cls-4" d="M287,71.65H233.16a.75.75,0,0,1,0-1.49H287a.74.74,0,0,1,.65.84A.75.75,0,0,1,287,71.65Z" transform="translate(-26.39 -11.27)"/><path id="Path_15" data-name="Path 15" class="cls-4" d="M311.41,63.45H296A.75.75,0,0,1,296,62h15.41a.75.75,0,0,1,.65.84A.74.74,0,0,1,311.41,63.45Z" transform="translate(-26.39 -11.27)"/><path id="Path_16" data-name="Path 16" class="cls-4" d="M311.41,71.5H296a.75.75,0,0,1-.65-.84A.74.74,0,0,1,296,70h15.41a.75.75,0,0,1,0,1.49Z" transform="translate(-26.39 -11.27)"/><path id="Path_17" data-name="Path 17" class="cls-4" d="M337.28,71.5H321.86a.76.76,0,0,1-.65-.84.74.74,0,0,1,.65-.65h15.42a.75.75,0,0,1,.65.84A.76.76,0,0,1,337.28,71.5Z" transform="translate(-26.39 -11.27)"/><path id="Path_18" data-name="Path 18" class="cls-4" d="M247.92,47.06H232.51a.75.75,0,0,1-.65-.84.76.76,0,0,1,.65-.65h15.41a.75.75,0,0,1,0,1.49Z" transform="translate(-26.39 -11.27)"/><path id="Path_19" data-name="Path 19" class="cls-4" d="M286.53,141H232.71a.74.74,0,0,1-.65-.84.75.75,0,0,1,.65-.65h53.82a.75.75,0,0,1,0,1.49Z" transform="translate(-26.39 -11.27)"/><path id="Path_20" data-name="Path 20" class="cls-4" d="M286.26,157.4H232.44a.75.75,0,0,1-.65-.84.76.76,0,0,1,.65-.65h53.82a.75.75,0,0,1,0,1.49Z" transform="translate(-26.39 -11.27)"/><path id="Path_21" data-name="Path 21" class="cls-4" d="M286.4,165.59H232.58a.73.73,0,0,1-.65-.84.75.75,0,0,1,.65-.65H286.4a.75.75,0,0,1,0,1.49Z" transform="translate(-26.39 -11.27)"/><path id="Path_22" data-name="Path 22" class="cls-4" d="M309.39,157.55H294a.75.75,0,0,1-.65-.84.74.74,0,0,1,.65-.65h15.42a.75.75,0,0,1,0,1.49Z" transform="translate(-26.39 -11.27)"/><path id="Path_23" data-name="Path 23" class="cls-4" d="M309.39,165.59H294a.75.75,0,0,1,0-1.49h15.42a.75.75,0,0,1,0,1.49Z" transform="translate(-26.39 -11.27)"/><path id="Path_24" data-name="Path 24" class="cls-4" d="M335.25,157.55H319.84a.75.75,0,0,1-.65-.84.74.74,0,0,1,.65-.65h15.41a.75.75,0,0,1,.65.84A.74.74,0,0,1,335.25,157.55Z" transform="translate(-26.39 -11.27)"/><path id="Path_25" data-name="Path 25" class="cls-4" d="M345.44,149.21H260.79a.76.76,0,0,1-.65-.84.74.74,0,0,1,.65-.65h84.65a.75.75,0,0,1,0,1.49Z" transform="translate(-26.39 -11.27)"/><path id="Path_26" data-name="Path 26" class="cls-4" d="M248,149.21H232.58a.75.75,0,0,1,0-1.49H248a.75.75,0,0,1,0,1.49Z" transform="translate(-26.39 -11.27)"/><path id="Path_27" data-name="Path 27" class="cls-1" d="M273.53,84.88l-20.9,20.64,20.9,20.64,4.7-4.7-15.81-15.81,15.94-15.93Z" transform="translate(-26.39 -11.27)"/><path id="Path_28" data-name="Path 28" class="cls-1" d="M304.36,84.88l20.9,20.64-20.9,20.64-4.7-4.7,15.8-15.81L299.52,89.72Z" transform="translate(-26.39 -11.27)"/><path id="Path_29" data-name="Path 29" class="cls-3" d="M273.53,84.88l-20.9,20.64,20.9,20.64,4.7-4.7-15.81-15.81,15.94-15.93Z" transform="translate(-26.39 -11.27)"/><path id="Path_30" data-name="Path 30" class="cls-3" d="M304.36,84.88l20.9,20.64-20.9,20.64-4.7-4.7,15.8-15.81L299.52,89.72Z" transform="translate(-26.39 -11.27)"/><path id="Path_31" data-name="Path 31" class="cls-1" d="M238.64,257.53c6.5,8.71,20,9.63,20,9.63s2.95-13.2-3.55-21.91-20-9.63-20-9.63S232.13,248.83,238.64,257.53Z" transform="translate(-26.39 -11.27)"/><path id="Path_32" data-name="Path 32" class="cls-1" d="M271.77,260.81c-4.29,5.75-13.2,6.35-13.2,6.35s-1.95-8.71,2.34-14.46,13.2-6.35,13.2-6.35S276.06,255.06,271.77,260.81Z" transform="translate(-26.39 -11.27)"/><path id="Path_33" data-name="Path 33" class="cls-5" d="M94,219.18v22.61H87.5L83.2,218.1Z" transform="translate(-26.39 -11.27)"/><path id="Path_34" data-name="Path 34" class="cls-5" d="M42.83,219.18v22.61H36.37L32.06,218.1Z" transform="translate(-26.39 -11.27)"/><path id="Path_35" data-name="Path 35" class="cls-5" d="M76.9,52.53s-10.38-7.46-11.68-3.9S73,58.69,73,58.69Z" transform="translate(-26.39 -11.27)"/><path id="Path_36" data-name="Path 36" class="cls-6" d="M40.09,62.09c0,12.9,5.55,13.3,14.6,13.3s18.16-.4,18.16-13.3S65.51,38.74,56.47,38.74,40.09,49.2,40.09,62.09Z" transform="translate(-26.39 -11.27)"/><path id="Path_37" data-name="Path 37" class="cls-5" d="M62.31,61.93S61,71.66,67.17,72.31s-20.11,2.6-20.11,2.6,6.81-6.17,3.24-11S62.31,61.93,62.31,61.93Z" transform="translate(-26.39 -11.27)"/><path id="Path_38" data-name="Path 38" class="cls-6" d="M95.07,235.79l2.27,19.14s11.35,13.95,4.21,13-11.67.21-11.67-1.09-.17-5.93-1.14-5.93S87,268.2,87,268.2s-2.92-.22-3.25-.55-.65-18.89-.65-18.89-1-5.51,1-8.11a7.09,7.09,0,0,0,1.62-4.86Z" transform="translate(-26.39 -11.27)"/><path id="Path_39" data-name="Path 39" class="cls-6" d="M43.39,235.58l2.27,19.14s11.36,14,4.22,13-11.68.21-11.68-1.09-.16-5.93-1.14-5.93S35.28,268,35.28,268s-2.91-.22-3.24-.55-.65-18.89-.65-18.89-1-5.51,1-8.1A7.14,7.14,0,0,0,34,235.58Z" transform="translate(-26.39 -11.27)"/><path id="Path_40" data-name="Path 40" class="cls-6" d="M78.2,121.94s10.38,29.52,11,36-.65,28.54-.65,28.54S98,224.59,96,224.92s-12.79,1.86-13.11.24-1.48-4.14-1.16-5.11-1-4.54-1-6.49-4.55-12.16-4.22-13.78-5.52-25.62-6.49-27.57-3.57-15.57-3.57-15.57-14.6,39.9-14.92,40.87-1.62,2.6-1,2.92-1,2.6-1,2.6-3.36,13.45-3.36,14.1.65,8-.65,8.32-14.55.3-15.2-2,6.89-28.56,6.89-28.56,5.51-16.55,3.89-20.76,1.62-29.52,2.92-31.47,1.62-13.62,1.62-13.62Z" transform="translate(-26.39 -11.27)"/><circle id="Ellipse_4" data-name="Ellipse 4" class="cls-5" cx="30.24" cy="45.64" r="10.38"/><path id="Path_41" data-name="Path 41" class="cls-3" d="M62.31,70s-11.68.33-12.33-.65-16.87,2.27-16.87,8.76,9.41,31.79,9.41,31.79,3.57,18.16,2.59,20.11,36-4.22,35-7.46-6.49-10.38.64-16.54A41,41,0,0,0,90.85,93.4L82.42,71S74,69.72,72,71,62.31,70,62.31,70Z" transform="translate(-26.39 -11.27)"/><path id="Path_42" data-name="Path 42" class="cls-3" d="M88.58,95l2.27-1.62s21.09-22.06,15.57-26.28S92.8,59,88.91,58.69a14,14,0,0,1-7.14-3.24s-4.22-7.46-7.46-2.6S67.5,59.34,72,61s7.46,1,9.73,2.59,11,4.22,7.14,5.19A35.19,35.19,0,0,0,82.42,71L78.2,78.48Z" transform="translate(-26.39 -11.27)"/><path id="Path_43" data-name="Path 43" class="cls-5" d="M51.93,149.84s8.43,12.32,2.27,11.67-9.09-9.08-9.09-9.08Z" transform="translate(-26.39 -11.27)"/><path id="Path_44" data-name="Path 44" class="cls-3" d="M35.38,76.53l-2.27,1.62s-7.46,40.87,0,51.57,8.11,10.06,8.11,10.06,1.3-1,2,5.51-.33,9.09,1.62,9.09,10.7-1.95,10.05-3.57-4.86-11-5.19-13.3-1.94-7.46-2.59-10.38,2.92-4.54,1.3-10.7S44.47,99.24,44.47,97,35.38,76.53,35.38,76.53Z" transform="translate(-26.39 -11.27)"/><path id="Path_45" data-name="Path 45" class="cls-6" d="M46.57,47.66c0,3.49,4.8,6.33,10.7,6.33s11.36,1.87,11.36-1.63-5.44-11-11.36-11S46.57,44.17,46.57,47.66Z" transform="translate(-26.39 -11.27)"/><path id="Path_46" data-name="Path 46" class="cls-6" d="M72.75,64.28S73.19,76,61.5,75.39s1.58-10,1.58-10Z" transform="translate(-26.39 -11.27)"/><rect id="Rectangle_22" data-name="Rectangle 22" class="cls-7" y="255.9" width="317.02" height="1.01"/></svg>