<svg id="Layer_1" data-name="Layer 1" xmlns="http://www.w3.org/2000/svg" viewBox="0 0 582.75 41.48"><defs><style>.cls-1{fill:#ff331c;stroke:#f23535;stroke-miterlimit:10;}</style></defs><path class="cls-1" d="M53.07,86.44V84.71a31.49,31.49,0,0,1-7.35,2,55.3,55.3,0,0,1-7.67.52A40.44,40.44,0,0,1,27.83,86a23.93,23.93,0,0,1-8.16-3.75,17.68,17.68,0,0,1-5.4-6.31,19.27,19.27,0,0,1-2-9,19.25,19.25,0,0,1,2-8.94,17.85,17.85,0,0,1,5.35-6.31A23.39,23.39,0,0,1,27.52,48a36.48,36.48,0,0,1,9.62-1.23,38.73,38.73,0,0,1,5.17.31,31.76,31.76,0,0,1,4.26.85,32.55,32.55,0,0,1,3.58,1.22c1.09.45,2.14.94,3.15,1.45V46.84h3.2V61.43H53.3V57.09a3.53,3.53,0,0,0-.7-2.1,7.21,7.21,0,0,0-1.87-1.76A14.35,14.35,0,0,0,48,51.81a23.28,23.28,0,0,0-3.31-1,33,33,0,0,0-7.14-.84,35.64,35.64,0,0,0-9.75,1.18,18.2,18.2,0,0,0-6.7,3.38,13.25,13.25,0,0,0-3.87,5.35A19.06,19.06,0,0,0,16,67a16.85,16.85,0,0,0,1.38,6.86,14.24,14.24,0,0,0,4.17,5.41,20.48,20.48,0,0,0,7,3.55,34,34,0,0,0,9.85,1.27,39,39,0,0,0,4.05-.21,36.7,36.7,0,0,0,3.91-.61,36.12,36.12,0,0,0,3.59-.94,28.77,28.77,0,0,0,3.15-1.19V70.23H43.19V67H61.84v3.21H56.62V86.44Z" transform="translate(-11.81 -46.23)"/><path class="cls-1" d="M68.54,83.43a3.41,3.41,0,0,1,.26-1.32A3.51,3.51,0,0,1,69.49,81a3.3,3.3,0,0,1,2.37-1,3.11,3.11,0,0,1,1.29.27,3.36,3.36,0,0,1,1.79,1.79,3.25,3.25,0,0,1,.27,1.32,3.17,3.17,0,0,1-.27,1.29,3.27,3.27,0,0,1-.72,1,3.36,3.36,0,0,1-1.07.7,3.26,3.26,0,0,1-1.29.25,3.41,3.41,0,0,1-1.32-.25,3.07,3.07,0,0,1-1.05-.7,3.2,3.2,0,0,1-.69-1A3.34,3.34,0,0,1,68.54,83.43Z" transform="translate(-11.81 -46.23)"/><path class="cls-1" d="M81,47.44H93l22.91,35.34L138.4,47.44h12v3.17h-8.15V83.23h8.15v3.21H130.56V83.23h8.15v-30l-21.4,33.19h-3.15L92.73,53.11V83.23h8.11v3.21H81V83.23h8.15V50.61H81Z" transform="translate(-11.81 -46.23)"/><path class="cls-1" d="M156.2,83.43a3.41,3.41,0,0,1,.25-1.32,3.36,3.36,0,0,1,.7-1.07,3.3,3.3,0,0,1,2.37-1,3.17,3.17,0,0,1,1.29.27,3.45,3.45,0,0,1,1.79,1.79,3.25,3.25,0,0,1,.27,1.32,3.17,3.17,0,0,1-.27,1.29,3.14,3.14,0,0,1-.73,1,3.21,3.21,0,0,1-1.06.7,3.33,3.33,0,0,1-1.29.25,3.41,3.41,0,0,1-1.32-.25,3.22,3.22,0,0,1-1.75-1.75A3.33,3.33,0,0,1,156.2,83.43Z" transform="translate(-11.81 -46.23)"/><path class="cls-1" d="M190.54,47.44h29.19a34.06,34.06,0,0,1,7.76.77,14.77,14.77,0,0,1,5.26,2.29,8.8,8.8,0,0,1,3,3.75,14.52,14.52,0,0,1,0,10.33,9.07,9.07,0,0,1-3,3.78,14.27,14.27,0,0,1-5.26,2.31,33.46,33.46,0,0,1-7.76.78H202.24V83.23h8.12v3.21H190.54V83.23h8.15V50.61h-8.15Zm42.27,12a9.73,9.73,0,0,0-.88-4.48,5.91,5.91,0,0,0-2.75-2.63,14.58,14.58,0,0,0-4.78-1.23,66,66,0,0,0-7-.31H202.24V68.13h18.52a28.33,28.33,0,0,0,3.46-.17,17.7,17.7,0,0,0,3.27-.65,8.05,8.05,0,0,0,2.74-1.43,6.87,6.87,0,0,0,1.89-2.53A9.82,9.82,0,0,0,232.81,59.41Z" transform="translate(-11.81 -46.23)"/><path class="cls-1" d="M239.17,47.44h9.94V77.61a11,11,0,0,0,.28,2.77,3.44,3.44,0,0,0,.89,1.64,3.14,3.14,0,0,0,1.59.78,11.47,11.47,0,0,0,2.34.2H257v3.44h-2.73a16.61,16.61,0,0,1-3.92-.41,6,6,0,0,1-2.71-1.44,6.08,6.08,0,0,1-1.57-2.74,15.53,15.53,0,0,1-.51-4.35V50.61h-6.39Z" transform="translate(-11.81 -46.23)"/><path class="cls-1" d="M286.38,83.29c-.87.43-1.84.88-2.9,1.35a32.95,32.95,0,0,1-7.35,2.2,25.33,25.33,0,0,1-4.34.36,19.36,19.36,0,0,1-4.63-.51,10.3,10.3,0,0,1-3.52-1.52,7,7,0,0,1-2.24-2.49,7.26,7.26,0,0,1-.8-3.45,6.66,6.66,0,0,1,2-5A13.82,13.82,0,0,1,268,71.18a40.41,40.41,0,0,1,8.16-1.69q4.71-.54,10.25-.79V67.36a4.13,4.13,0,0,0-.83-2.58A6,6,0,0,0,283.34,63a12.43,12.43,0,0,0-3.22-1,21.85,21.85,0,0,0-3.88-.32,25.21,25.21,0,0,0-4.15.29,11.64,11.64,0,0,0-3,.88,6,6,0,0,0-1.94,1.42,5.34,5.34,0,0,0-1.07,1.92l-3.6-.85a7.92,7.92,0,0,1,4.33-4.94c2.27-1.18,5.38-1.76,9.32-1.76a27.9,27.9,0,0,1,5.51.51A13.49,13.49,0,0,1,286,60.78a8.08,8.08,0,0,1,2.87,2.88,8.38,8.38,0,0,1,1,4.3V83.23h6.75v3.21H286.38Zm0-11.61q-6.22.22-10.48.81A35.84,35.84,0,0,0,269,74a9.31,9.31,0,0,0-3.78,2.19,4.32,4.32,0,0,0,1,6.68,12.58,12.58,0,0,0,6.38,1.31,20.43,20.43,0,0,0,3.82-.4,35.32,35.32,0,0,0,3.93-1,26.17,26.17,0,0,0,3.49-1.37,13.63,13.63,0,0,0,2.5-1.51Z" transform="translate(-11.81 -46.23)"/><path class="cls-1" d="M301.19,59.41H329V62.2L305.79,83.12h20.58V75.91h3.21V86.44H300.46v-2.9l23.07-20.83H304.4v6.41h-3.21Z" transform="translate(-11.81 -46.23)"/><path class="cls-1" d="M361.63,83.29c-.87.43-1.84.88-2.9,1.35a32.95,32.95,0,0,1-7.35,2.2,25.33,25.33,0,0,1-4.34.36,19.36,19.36,0,0,1-4.63-.51,10.39,10.39,0,0,1-3.52-1.52,7.11,7.11,0,0,1-2.24-2.49,7.26,7.26,0,0,1-.8-3.45,6.7,6.7,0,0,1,2-5,13.82,13.82,0,0,1,5.41-3.08,40.41,40.41,0,0,1,8.16-1.69q4.71-.54,10.25-.79V67.36a4.18,4.18,0,0,0-.82-2.58A6.05,6.05,0,0,0,358.59,63a12.43,12.43,0,0,0-3.22-1,21.85,21.85,0,0,0-3.88-.32,25.29,25.29,0,0,0-4.15.29,11.76,11.76,0,0,0-3,.88,6,6,0,0,0-1.94,1.42,5.34,5.34,0,0,0-1.07,1.92l-3.6-.85a8,8,0,0,1,4.33-4.94c2.28-1.18,5.39-1.76,9.32-1.76a27.9,27.9,0,0,1,5.51.51,13.64,13.64,0,0,1,4.36,1.62,8.05,8.05,0,0,1,2.86,2.88,8.38,8.38,0,0,1,1,4.3V83.23h6.75v3.21H361.63Zm0-11.61q-6.22.22-10.48.81a36,36,0,0,0-6.88,1.5,9.31,9.31,0,0,0-3.78,2.19,4.33,4.33,0,0,0,1,6.68,12.54,12.54,0,0,0,6.37,1.31,20.43,20.43,0,0,0,3.82-.4,35.32,35.32,0,0,0,3.93-1,26.17,26.17,0,0,0,3.49-1.37,13.63,13.63,0,0,0,2.5-1.51Z" transform="translate(-11.81 -46.23)"/><path class="cls-1" d="M377.16,74.4V70.91h22.08V74.4Z" transform="translate(-11.81 -46.23)"/><path class="cls-1" d="M457.26,67a20.06,20.06,0,0,1-1.9,9.07,17.55,17.55,0,0,1-5.22,6.31A22.61,22.61,0,0,1,442.3,86a37.76,37.76,0,0,1-9.73,1.19,38.31,38.31,0,0,1-9.8-1.19,23,23,0,0,1-7.89-3.67A17.43,17.43,0,0,1,409.63,76a20.06,20.06,0,0,1-1.9-9.07,21.36,21.36,0,0,1,.88-6.34,18.08,18.08,0,0,1,2.47-5.11,16.76,16.76,0,0,1,3.85-3.9,22.44,22.44,0,0,1,5-2.74,29,29,0,0,1,5.95-1.62,40.9,40.9,0,0,1,6.67-.52,37.76,37.76,0,0,1,9.73,1.19,22.61,22.61,0,0,1,7.84,3.67,17.55,17.55,0,0,1,5.22,6.31A20,20,0,0,1,457.26,67Zm-3.89,0q0-8.28-5.22-12.63T432.57,50q-10.4,0-15.67,4.39T411.62,67q0,8.3,5.28,12.64t15.67,4.34q10.35,0,15.58-4.34T453.37,67Z" transform="translate(-11.81 -46.23)"/><path class="cls-1" d="M460.53,47.44h9.93V77.61a11,11,0,0,0,.29,2.77,3.36,3.36,0,0,0,.89,1.64,3.14,3.14,0,0,0,1.59.78,11.33,11.33,0,0,0,2.34.2h2.78v3.44h-2.72a16.61,16.61,0,0,1-3.92-.41A6,6,0,0,1,469,84.59a6.08,6.08,0,0,1-1.57-2.74,15.13,15.13,0,0,1-.52-4.35V50.61h-6.38Z" transform="translate(-11.81 -46.23)"/><path class="cls-1" d="M482.33,86.44V76.5h3.18v1.73a3.76,3.76,0,0,0,1.06,2.69,8.09,8.09,0,0,0,2.74,1.84,16.31,16.31,0,0,0,3.7,1.07,24.85,24.85,0,0,0,4,.34,31.59,31.59,0,0,0,4.17-.25,12.59,12.59,0,0,0,3.29-.8,5.43,5.43,0,0,0,2.16-1.49,3.79,3.79,0,0,0,.07-4.46,5.51,5.51,0,0,0-1.87-1.49,13.06,13.06,0,0,0-2.76-1c-1.05-.27-2.17-.5-3.35-.7s-2.4-.39-3.64-.57-2.47-.4-3.65-.65a30.14,30.14,0,0,1-3.35-.92,10.8,10.8,0,0,1-2.76-1.38,6.45,6.45,0,0,1-1.87-2,6.34,6.34,0,0,1,.38-6.4,7.46,7.46,0,0,1,2.81-2.17,14.3,14.3,0,0,1,3.94-1.1,34.37,34.37,0,0,1,4.44-.29,22.59,22.59,0,0,1,6,.74,16.54,16.54,0,0,1,4.6,1.93V59.41h3.18v9.12h-3.18v-2.1a2.85,2.85,0,0,0-.49-1.64,4.51,4.51,0,0,0-1.3-1.27,8.92,8.92,0,0,0-1.88-.94,16.52,16.52,0,0,0-2.2-.63,22.63,22.63,0,0,0-2.29-.35,20.78,20.78,0,0,0-2.15-.11,19.75,19.75,0,0,0-6.77.88,3.19,3.19,0,0,0-2.28,3.2,2.64,2.64,0,0,0,.69,1.86,5.56,5.56,0,0,0,1.88,1.28,14.13,14.13,0,0,0,2.75.88c1,.24,2.17.46,3.35.65l3.65.6c1.25.2,2.46.45,3.65.74a26.65,26.65,0,0,1,3.34,1.06,11.44,11.44,0,0,1,2.76,1.55,7,7,0,0,1,1.87,2.23,6.52,6.52,0,0,1,.7,3.09,5.91,5.91,0,0,1-.6,2.73,7,7,0,0,1-1.59,2,9.08,9.08,0,0,1-2.28,1.43,14.68,14.68,0,0,1-2.72.89,21.32,21.32,0,0,1-2.86.47,26.56,26.56,0,0,1-2.73.14,26.93,26.93,0,0,1-7.39-.9,17.18,17.18,0,0,1-5.18-2.36v2.5Z" transform="translate(-11.81 -46.23)"/><path class="cls-1" d="M532.43,87.15a21.85,21.85,0,0,1-6.74-1,14.86,14.86,0,0,1-5.15-2.81,12.54,12.54,0,0,1-3.3-4.44,14.34,14.34,0,0,1-1.16-5.85,13.61,13.61,0,0,1,1.22-5.78,13.24,13.24,0,0,1,3.41-4.51,15.75,15.75,0,0,1,5.19-2.93,20.15,20.15,0,0,1,6.59-1,19.82,19.82,0,0,1,6.67,1,13.68,13.68,0,0,1,5,3,13,13,0,0,1,3.13,4.78A17.59,17.59,0,0,1,548.35,74v.63H519.74a10.23,10.23,0,0,0,1.12,3.89,9,9,0,0,0,2.54,3,11.77,11.77,0,0,0,3.88,1.87,18.34,18.34,0,0,0,5.15.66,22.22,22.22,0,0,0,4.84-.46,13.67,13.67,0,0,0,3.49-1.22,8.83,8.83,0,0,0,2.33-1.73,8,8,0,0,0,1.38-2H548A11.83,11.83,0,0,1,542.32,85,21,21,0,0,1,532.43,87.15Zm12.26-15.59a11.15,11.15,0,0,0-.88-3.66,8.62,8.62,0,0,0-2.21-3.05,10.86,10.86,0,0,0-3.72-2.1,16.45,16.45,0,0,0-5.39-.78,16.12,16.12,0,0,0-5.23.78,12.2,12.2,0,0,0-3.86,2.1,9.9,9.9,0,0,0-2.49,3.05,10.89,10.89,0,0,0-1.17,3.66Z" transform="translate(-11.81 -46.23)"/><path class="cls-1" d="M552.36,59.41h9.93v5.11a22.16,22.16,0,0,1,3-2.37,23.56,23.56,0,0,1,3.55-1.91,22.82,22.82,0,0,1,4-1.3,19.92,19.92,0,0,1,4.32-.46,14.23,14.23,0,0,1,4.61.67A8.83,8.83,0,0,1,585,61a7.83,7.83,0,0,1,2,3,11.15,11.15,0,0,1,.65,3.9V83.23h6.42v3.21H577.71V83.23h6.38V69a9.79,9.79,0,0,0-.55-3.56A5.2,5.2,0,0,0,582,63.16,6,6,0,0,0,579.48,62a15,15,0,0,0-3.28-.32,15.41,15.41,0,0,0-4.17.56,24.06,24.06,0,0,0-3.85,1.42,24.56,24.56,0,0,0-3.32,1.89,26.18,26.18,0,0,0-2.57,2v15.7h6.42v3.21H552.36V83.23h6.38V62.59h-6.38Z" transform="translate(-11.81 -46.23)"/></svg>